<svg width="211" height="124" viewBox="0 0 211 124" fill="none" xmlns="http://www.w3.org/2000/svg">
<path d="M53.6784 114.018C56.6027 119.441 62.8092 121.77 62.8092 121.77C62.8092 121.77 64.2744 115.305 61.35 109.882C58.4257 104.458 52.2192 102.13 52.2192 102.13C52.2192 102.13 50.7541 108.595 53.6784 114.018Z" fill="#3F3D56"/>
<path d="M55.6884 112.234C60.968 115.41 63.0013 121.72 63.0013 121.72C63.0013 121.72 56.4747 122.879 51.1951 119.702C45.9155 116.526 43.8822 110.217 43.8822 110.217C43.8822 110.217 50.4088 109.058 55.6884 112.234Z" fill="#6C63FF"/>
<path d="M210.823 123.253H0V123.724H210.823V123.253Z" fill="#2F2E41"/>
<path d="M144.552 9.01812L154.199 7.13577C154.199 7.13577 156.552 -0.864194 159.375 0.0769786C162.199 1.01815 157.493 9.01812 157.493 9.01812L144.081 15.1357L144.552 9.01812Z" fill="#A0616A"/>
<path d="M85.9637 17.0181L81.7284 22.4298C81.7284 22.4298 75.6108 22.1945 77.4932 25.4886C79.3755 28.7827 83.6108 26.9004 83.8461 26.1945C84.0814 25.4886 90.9049 19.371 90.9049 19.371L85.9637 17.0181Z" fill="#A0616A"/>
<path d="M103.258 10.7827L106.787 8.90035C106.787 8.90035 121.846 7.72389 127.493 11.4886C133.14 15.2533 103.728 15.7239 103.728 15.7239L103.258 10.7827Z" fill="#6C63FF"/>
<path d="M109.964 7.37089C109.964 7.37089 108.081 2.90032 110.67 2.42973C112.146 2.14028 113.664 2.14028 115.14 2.42973L112.317 4.78267L109.964 7.37089Z" fill="#3F3D56"/>
<path opacity="0.1" d="M109.964 7.37089C109.964 7.37089 108.081 2.90032 110.67 2.42973C112.146 2.14028 113.664 2.14028 115.14 2.42973L112.317 4.78267L109.964 7.37089Z" fill="black"/>
<path d="M97.0225 34.4298L90.199 33.9592L91.3755 36.0769C91.3755 36.0769 81.9637 38.9004 85.0226 46.9004C88.0814 54.9003 92.7872 62.4297 92.7872 62.4297L95.846 68.312C95.846 68.312 102.199 69.2532 102.434 67.3709C102.67 65.4885 102.434 64.5473 101.258 63.6062C100.081 62.665 99.3754 60.7826 99.3754 59.8415C99.3754 58.9003 99.6107 57.9591 98.9048 57.4885C98.199 57.018 97.9637 56.3121 97.9637 54.9003C97.9637 53.4886 95.3755 48.3121 95.3755 48.3121C95.3755 48.3121 103.611 48.0768 106.199 50.1945C108.787 52.3121 117.258 60.3121 117.258 60.3121C117.726 60.8023 118.122 61.3569 118.434 61.9591C118.905 62.9003 118.905 63.3709 119.846 63.8415C120.787 64.312 120.081 66.1944 119.846 66.4297C119.611 66.665 117.258 76.0767 117.258 76.0767C117.258 76.0767 114.669 80.5473 117.493 80.7826C120.317 81.0179 122.905 81.2532 123.14 80.7826C123.402 80.1303 123.716 79.5008 124.081 78.9002C124.787 77.7238 124.081 75.1355 124.081 75.1355C124.081 75.1355 130.905 66.4297 128.787 61.0179C126.669 55.6062 122.199 43.371 122.199 43.371L115.375 40.5474L102.905 36.0769L97.0225 34.4298Z" fill="#2F2E41"/>
<path d="M96.5519 67.1357C96.5519 67.1357 95.1402 72.5474 94.6696 72.7827C94.199 73.018 89.0225 77.4886 92.5519 78.1944C96.0813 78.9003 98.6695 78.665 99.3754 77.9591C100.081 77.2533 99.846 76.5474 101.022 76.3121C102.199 76.0768 104.317 75.3709 104.081 73.7239C103.846 72.0768 102.67 67.6062 101.964 67.1357C101.258 66.6651 96.5519 67.1357 96.5519 67.1357Z" fill="#2F2E41"/>
<path d="M117.022 79.1355C117.022 79.1355 114.905 80.7826 116.081 83.8414C117.258 86.9002 118.905 90.1943 118.905 90.1943C118.905 90.1943 120.787 96.0766 123.846 95.1354C125.089 94.7531 125.71 93.7106 126.01 92.6074C126.226 91.7738 126.261 90.9036 126.114 90.0551C125.967 89.2066 125.64 88.3994 125.155 87.6875L123.375 85.0178L121.493 80.0767L117.022 79.1355Z" fill="#2F2E41"/>
<path d="M111.14 9.95928C111.14 9.95928 108.317 9.72398 107.846 10.4299C107.375 11.1357 105.258 20.5475 107.846 21.4886C110.434 22.4298 118.199 24.0769 119.375 22.9004C120.552 21.7239 121.022 11.371 121.022 11.371L111.14 9.95928Z" fill="#A0616A"/>
<path opacity="0.1" d="M111.14 9.95928C111.14 9.95928 108.317 9.72398 107.846 10.4299C107.375 11.1357 105.258 20.5475 107.846 21.4886C110.434 22.4298 118.199 24.0769 119.375 22.9004C120.552 21.7239 121.022 11.371 121.022 11.371L111.14 9.95928Z" fill="black"/>
<path d="M106.905 17.7241C106.905 17.7241 110.199 21.0182 112.317 20.5477C114.434 20.0771 119.375 17.9594 119.846 17.0183C120.317 16.0771 126.199 15.8418 126.199 15.8418L119.846 33.4888L124.317 48.3123C124.317 48.3123 126.905 45.2534 119.846 45.0181C112.787 44.7829 103.375 41.2535 101.728 36.5476C101.728 36.5476 91.3755 35.1358 90.9049 34.9005C90.4343 34.6652 92.0813 33.2535 92.0813 33.2535L98.9048 31.3711L103.846 25.0182L106.905 17.7241Z" fill="#F2F2F2"/>
<path d="M109.022 10.4297C109.022 10.4297 110.199 8.78267 109.022 8.78267C107.846 8.78267 104.552 8.78267 103.375 9.01796C102.199 9.25325 97.7284 8.07679 97.2578 9.48854C96.7872 10.9003 96.7872 19.6062 97.7284 20.312C98.6695 21.0179 99.1401 21.0179 97.9637 22.4297C96.7872 23.8414 93.9637 28.5473 94.6696 30.1943C95.3754 31.8414 87.1402 32.312 88.3166 34.1943C88.6361 34.7322 89.0813 35.1845 89.6141 35.5124C90.1469 35.8403 90.7513 36.0339 91.3755 36.0767C91.3755 36.0767 91.846 32.312 94.6696 34.1943C97.4931 36.0767 101.258 40.7825 104.317 37.7237C107.375 34.6649 108.552 31.8414 108.787 27.8414C109.022 23.8414 108.787 21.2532 108.317 18.9003C107.846 16.5473 109.022 10.4297 109.022 10.4297Z" fill="#6C63FF"/>
<path d="M121.258 14.9004C121.258 14.9004 123.14 16.5474 121.258 20.5474C119.375 24.5474 114.434 33.9591 118.434 40.0768C122.434 46.1944 124.081 47.8414 123.14 49.0179C122.568 49.7634 122.239 50.6671 122.199 51.6061L124.787 50.6649C124.787 50.6649 125.258 47.3708 126.199 45.0179C127.14 42.665 124.317 35.6062 124.317 35.6062L125.258 26.4298C125.258 26.4298 129.022 20.5474 129.493 20.3121C129.964 20.0768 128.552 9.95923 128.552 9.95923C128.552 9.95923 126.199 9.25335 125.022 9.95923C123.846 10.6651 121.258 14.9004 121.258 14.9004Z" fill="#6C63FF"/>
<path d="M98.6696 9.72388H97.2578L87.6108 14.665C87.6108 14.665 86.9049 11.6062 86.4343 12.3121C85.9637 13.018 86.199 14.9003 85.0226 15.3709C83.8461 15.8415 83.1402 16.5474 85.0226 17.4886C86.9049 18.4297 87.1402 17.7238 87.1402 19.3709C87.1402 21.0179 88.5519 21.2532 89.7284 20.7827C90.9049 20.3121 91.1402 20.0768 92.3166 20.5474C93.4931 21.0179 92.7872 21.7238 94.4343 21.0179C96.0813 20.3121 100.317 20.5474 100.317 20.5474L98.6696 9.72388Z" fill="#6C63FF"/>
<path d="M126.905 10.4298L128.552 9.95922C128.552 9.95922 133.493 10.4298 134.669 10.4298C135.846 10.4298 137.022 10.1945 137.728 10.1945C138.434 10.1945 141.963 9.72393 142.434 9.25334C142.905 8.78276 145.022 7.60629 145.258 8.31217C145.493 9.01805 148.081 13.4886 145.728 15.6063C143.375 17.7239 142.905 16.7827 141.493 17.7239C140.081 18.6651 128.787 20.5474 128.552 20.3121C128.316 20.0768 126.905 10.4298 126.905 10.4298Z" fill="#6C63FF"/>
<path d="M117.258 19.371C121.156 19.371 124.317 16.2107 124.317 12.3122C124.317 8.41375 121.156 5.25342 117.258 5.25342C113.359 5.25342 110.199 8.41375 110.199 12.3122C110.199 16.2107 113.359 19.371 117.258 19.371Z" fill="#A0616A"/>
<path d="M112.063 12.5962C112.144 12.7499 112.193 12.9176 112.209 13.0902C112.304 13.4907 112.529 13.8483 112.849 14.1064C113.169 14.3645 113.567 14.5083 113.978 14.5151C113.944 14.6666 113.943 14.8234 113.974 14.9755C114.005 15.1275 114.068 15.2713 114.158 15.3974C114.249 15.5236 114.364 15.6293 114.498 15.7077C114.632 15.786 114.781 15.8353 114.936 15.8522C115.413 15.2409 115.769 14.5439 115.984 13.7989C116.037 13.5063 116.159 13.2303 116.339 12.9936C116.589 12.7279 116.981 12.6627 117.343 12.616C119.222 12.374 121.112 12.2332 123.005 12.1941C123.262 12.2126 123.52 12.16 123.749 12.042C124.281 11.6991 124.104 10.8725 123.768 10.3362C123.106 9.28746 122.099 8.50202 120.921 8.11474C120.077 7.84053 119.181 7.78329 118.299 7.68039C117.119 7.54259 115.944 7.31932 114.755 7.31241C113.567 7.3055 112.338 7.53412 111.366 8.21876C110.659 8.71734 109.498 10.1146 110.066 10.9964C110.157 11.1376 110.444 11.2072 110.567 11.3511C110.733 11.5469 110.734 11.8429 110.923 12.0207C111.238 12.3174 111.81 12.2232 112.063 12.5962Z" fill="#2F2E41"/>
<path d="M117.258 0.547607C117.258 0.547607 109.258 3.37113 109.964 7.37111C110.67 11.3711 112.787 16.077 117.258 15.8417C121.728 15.6064 124.081 10.7403 124.081 10.7403L122.905 4.077C122.905 4.077 118.434 0.547607 117.258 0.547607Z" fill="#3F3D56"/>
<path d="M116.248 14.6673C116.248 14.6673 119.393 11.2549 120.977 13.2335C120.977 13.2335 120.905 13.1359 116.248 14.6673Z" fill="#2F2E41"/>
<path d="M122.187 101.916C117.969 101.916 112.75 100.518 107.665 95.4681C95.2155 83.1037 83.3881 81.8636 83.2701 81.8525L83.314 81.3838C83.4337 81.395 95.4289 82.6522 107.997 95.134C114.455 101.548 121.12 101.941 125.575 101.14C128.517 100.606 131.319 99.4767 133.81 97.8215L134.088 98.201C131.545 99.8945 128.682 101.051 125.677 101.6C124.525 101.809 123.357 101.915 122.187 101.916Z" fill="#2F2E41"/>
<path d="M89.6108 91.7237C91.1702 91.7237 92.4343 90.4596 92.4343 88.9002C92.4343 87.3408 91.1702 86.0767 89.6108 86.0767C88.0514 86.0767 86.7872 87.3408 86.7872 88.9002C86.7872 90.4596 88.0514 91.7237 89.6108 91.7237Z" fill="#2F2E41"/>
<path d="M109.611 104.9C111.17 104.9 112.434 103.636 112.434 102.076C112.434 100.517 111.17 99.2529 109.611 99.2529C108.051 99.2529 106.787 100.517 106.787 102.076C106.787 103.636 108.051 104.9 109.611 104.9Z" fill="#2F2E41"/>
<path d="M160.823 123.488C155.101 122.593 149.6 121.831 144.319 121.203L146.352 117.135C145.646 116.9 142.588 119.253 142.588 119.253L145.176 107.488C141.646 107.959 139.999 119.959 139.999 119.959L135.999 115.959L137.968 120.488C121.808 118.79 107.863 118.26 96.1414 118.381L97.8819 114.9C97.1761 114.665 94.1173 117.018 94.1173 117.018L96.7055 105.253C93.1761 105.724 91.529 117.724 91.529 117.724L87.529 113.724L89.6145 118.52C81.585 118.754 73.5727 119.399 65.6093 120.453C67.3462 115.043 73.4115 109.841 73.4115 109.841C68.7478 111.292 66.3216 113.656 65.0658 115.847C64.8118 104.731 66.5218 93.6572 70.1174 83.1355C70.1174 83.1355 60.7056 104.312 62.1174 118.429L62.2965 120.937C54.1085 122.215 49.9998 123.488 49.9998 123.488H160.823Z" fill="#3F3D56"/>
</svg>
