<svg width="278" height="207" viewBox="0 0 278 207" fill="none" xmlns="http://www.w3.org/2000/svg">
<path d="M141.763 4.54639L66.7982 45.1516C68.08 47.3585 68.9059 49.8002 69.2268 52.3321C69.5477 54.864 69.3571 57.4346 68.6663 59.8915C67.9756 62.3484 66.7987 64.6416 65.2053 66.6354C63.612 68.6291 61.6348 70.2827 59.3906 71.4982C57.1465 72.7138 54.6813 73.4665 52.1409 73.7118C49.6006 73.9571 47.0368 73.69 44.6016 72.9263C42.1664 72.1626 39.9092 70.9179 37.9639 69.2659C36.0185 67.6139 34.4246 65.5882 33.2764 63.3089L7.71558 77.1541L73.9261 199.391L207.973 126.783L141.763 4.54639Z" fill="#F2F2F2"/>
<path opacity="0.2" d="M65.7056 111.616L51.9419 107.939L48.2651 121.703L62.0288 125.379L65.7056 111.616Z" fill="#6C63FF"/>
<path d="M84.8935 167.003C73.8916 183.875 76.9061 205.334 76.9061 205.334C76.9061 205.334 97.7583 199.438 108.76 182.566C119.762 165.694 116.748 144.235 116.748 144.235C116.748 144.235 95.8954 150.131 84.8935 167.003Z" fill="#3F3D56"/>
<path d="M76.8475 205.137C76.8475 205.137 76.5796 205.095 76.0867 204.995C75.6935 204.915 75.1521 204.801 74.4911 204.644C68.5817 203.251 52.8709 198.541 42.5993 186.158C29.7434 170.653 30.2848 148.99 30.2848 148.99C30.2848 148.99 49.9419 152.184 62.8946 166.108C63.4559 166.706 64.002 167.327 64.5329 167.969C75.7191 181.46 76.762 199.613 76.8446 204.1C76.856 204.773 76.8475 205.137 76.8475 205.137Z" fill="#6C63FF"/>
<path d="M68.9187 167.003C79.9206 183.875 76.9061 205.334 76.9061 205.334C76.9061 205.334 56.0539 199.438 45.0519 182.566C34.05 165.694 37.0646 144.235 37.0646 144.235C37.0646 144.235 57.9167 150.131 68.9187 167.003Z" stroke="#3F3D56" stroke-width="2" stroke-miterlimit="10"/>
<path opacity="0.1" d="M76.8448 204.1C76.5542 204.451 76.2977 204.75 76.0869 204.995C75.6196 205.528 75.3546 205.807 75.3546 205.807C75.3546 205.807 75.0327 205.402 74.4913 204.644C71.5195 200.502 61.9602 185.771 62.6982 168.755C62.7381 167.863 62.8036 166.981 62.8948 166.108C63.4561 166.706 64.0022 167.327 64.5331 167.969C75.7193 181.46 76.7622 199.613 76.8448 204.1Z" fill="black"/>
<path d="M93.1576 169.985C92.288 190.109 77.35 205.807 77.35 205.807C77.35 205.807 63.8219 188.879 64.6916 168.755C65.5612 148.632 80.4992 132.934 80.4992 132.934C80.4992 132.934 94.0273 149.862 93.1576 169.985Z" fill="#6C63FF"/>
<path d="M9.53324 176.569C10.5617 176.569 11.3953 175.735 11.3953 174.707C11.3953 173.679 10.5617 172.845 9.53324 172.845C8.50483 172.845 7.67114 173.679 7.67114 174.707C7.67114 175.735 8.50483 176.569 9.53324 176.569Z" fill="#FF6584"/>
<path d="M46.4431 205.271H124.228" stroke="#3F3D56" stroke-width="2" stroke-miterlimit="10"/>
<path d="M0 205.271H36.7555" stroke="#3F3D56" stroke-width="2" stroke-miterlimit="10"/>
<path d="M18.6562 205.614V184.412" stroke="#3F3D56" stroke-width="2" stroke-miterlimit="10"/>
<path d="M18.6562 187.41C20.3121 187.41 21.6544 186.068 21.6544 184.412C21.6544 182.756 20.3121 181.414 18.6562 181.414C17.0003 181.414 15.658 182.756 15.658 184.412C15.658 186.068 17.0003 187.41 18.6562 187.41Z" fill="#3F3D56"/>
<path d="M18.6561 197.479C18.6561 197.479 18.2278 188.267 9.44727 189.338L18.6561 197.479Z" fill="#3F3D56"/>
<path d="M78.8536 128.249C82.0463 128.249 84.6344 125.661 84.6344 122.468C84.6344 119.275 82.0463 116.687 78.8536 116.687C75.6609 116.687 73.0728 119.275 73.0728 122.468C73.0728 125.661 75.6609 128.249 78.8536 128.249Z" fill="#3F3D56"/>
<path d="M60.7226 126.672C63.0445 126.672 64.9268 124.79 64.9268 122.468C64.9268 120.146 63.0445 118.264 60.7226 118.264C58.4006 118.264 56.5183 120.146 56.5183 122.468C56.5183 124.79 58.4006 126.672 60.7226 126.672Z" stroke="#3F3D56" stroke-width="2" stroke-miterlimit="10"/>
<path d="M96.984 126.672C99.306 126.672 101.188 124.79 101.188 122.468C101.188 120.146 99.306 118.264 96.984 118.264C94.6621 118.264 92.7798 120.146 92.7798 122.468C92.7798 124.79 94.6621 126.672 96.984 126.672Z" stroke="#3F3D56" stroke-width="2" stroke-miterlimit="10"/>
<path d="M77.3501 205.237L80.6342 133.755" stroke="#3F3D56" stroke-width="2" stroke-miterlimit="10"/>
<path d="M260.494 83.9262C263.687 83.9262 266.275 81.338 266.275 78.1453C266.275 74.9527 263.687 72.3645 260.494 72.3645C257.301 72.3645 254.713 74.9527 254.713 78.1453C254.713 81.338 257.301 83.9262 260.494 83.9262Z" fill="#3F3D56"/>
<path d="M140.929 9.4085C143.251 9.4085 145.134 7.52619 145.134 5.20425C145.134 2.88231 143.251 1 140.929 1C138.607 1 136.725 2.88231 136.725 5.20425C136.725 7.52619 138.607 9.4085 140.929 9.4085Z" stroke="#3F3D56" stroke-width="2" stroke-miterlimit="10"/>
<path d="M93.1378 35.6216C95.4598 35.6216 97.3421 33.7393 97.3421 31.4174C97.3421 29.0954 95.4598 27.2131 93.1378 27.2131C90.8159 27.2131 88.9336 29.0954 88.9336 31.4174C88.9336 33.7393 90.8159 35.6216 93.1378 35.6216Z" stroke="#3F3D56" stroke-width="2" stroke-miterlimit="10"/>
<path d="M186.623 51.1172C194.139 51.1172 200.232 45.0243 200.232 37.5083C200.232 29.9923 194.139 23.8994 186.623 23.8994C179.107 23.8994 173.014 29.9923 173.014 37.5083C173.014 45.0243 179.107 51.1172 186.623 51.1172Z" fill="#FF6584"/>
<path d="M217.947 157.759L225.221 187.089L232.495 185.915L225.221 152.363L217.947 157.759Z" fill="#FBBEBE"/>
<path d="M227.802 185.212C227.802 185.212 223.66 186.612 224.206 187.554C224.752 188.497 224.752 194.363 222.875 196.474C220.997 198.586 216.305 205.156 221.701 205.39C227.098 205.625 232.495 202.106 232.495 202.106V196.005L233.433 201.636H234.372V195.301C234.372 195.301 236.718 191.312 235.31 188.966C233.902 186.62 232.985 184.575 231.215 184.776C229.444 184.977 227.802 185.212 227.802 185.212Z" fill="#2F2E41"/>
<path d="M189.322 182.631L188.148 188.966H196.361V182.631H189.322Z" fill="#FBBEBE"/>
<path d="M190.026 187.558C190.026 187.558 187.679 187.323 186.975 190.608C186.271 193.893 179.936 200.865 177.59 201.569C175.243 202.273 175.243 204.62 178.294 205.089C181.344 205.558 189.087 205.793 190.964 203.212C192.841 200.631 195.422 196.474 195.422 196.474L194.249 205.324H196.361C196.361 205.324 198.238 196.709 200.115 194.597C201.992 192.485 196.361 187.558 195.422 187.558H190.026Z" fill="#2F2E41"/>
<path d="M178.528 86.6646C178.528 86.6646 176.886 91.1226 174.07 91.8265C171.255 92.5305 150.372 97.4578 150.372 97.4578C150.372 97.4578 132.07 97.9271 137.702 101.916C143.333 105.905 152.484 101.916 152.484 101.916C152.484 101.916 179.232 98.631 181.344 95.1114C182.734 92.7162 183.912 90.2038 184.864 87.6031L178.528 86.6646Z" fill="#FBBEBE"/>
<path d="M187.445 66.9551C187.445 66.9551 174.07 88.7762 175.713 89.2455C177.355 89.7148 192.607 94.6421 193.31 92.7651C194.014 90.888 194.014 82.2064 194.014 82.2064L187.445 66.9551Z" fill="#2F2E41"/>
<path opacity="0.1" d="M187.445 66.9551C187.445 66.9551 174.07 88.7762 175.713 89.2455C177.355 89.7148 192.607 94.6421 193.31 92.7651C194.014 90.888 194.014 82.2064 194.014 82.2064L187.445 66.9551Z" fill="black"/>
<path d="M222.171 61.793L252.439 77.2789C252.439 77.2789 269.567 81.737 265.813 85.2566C262.059 88.7761 249.858 82.2063 249.858 82.2063L216.305 66.955L222.171 61.793Z" fill="#FBBEBE"/>
<path d="M183.456 49.592C183.456 49.592 189.321 58.5082 188.852 60.6199C188.852 60.6199 189.321 62.0277 188.618 62.9663C187.914 63.9048 188.148 69.5361 188.148 69.5361L190.495 72.821L193.545 62.7317L194.953 51.9384C194.953 51.9384 191.785 47.5976 192.254 45.4859C192.724 43.3742 183.456 49.592 183.456 49.592Z" fill="#FBBEBE"/>
<path d="M201.992 100.273C201.992 100.273 188.852 135.469 188.852 150.955C188.852 166.441 183.925 184.039 187.679 185.681C191.433 187.323 210.439 187.558 210.908 185.681C211.377 183.804 208.562 107.547 207.154 104.497C205.746 101.447 201.992 100.273 201.992 100.273Z" fill="#2F2E41"/>
<path opacity="0.1" d="M201.992 100.273C201.992 100.273 188.852 135.469 188.852 150.955C188.852 166.441 183.925 184.039 187.679 185.681C191.433 187.323 210.439 187.558 210.908 185.681C211.377 183.804 208.562 107.547 207.154 104.497C205.746 101.447 201.992 100.273 201.992 100.273Z" fill="black"/>
<path d="M186.506 50.9998C191.301 50.9998 195.188 47.1129 195.188 42.3183C195.188 37.5236 191.301 33.6367 186.506 33.6367C181.711 33.6367 177.824 37.5236 177.824 42.3183C177.824 47.1129 181.711 50.9998 186.506 50.9998Z" fill="#FBBEBE"/>
<path d="M189.087 68.5973L188.459 63.3022C188.459 63.3022 186.506 66.0164 186.506 68.1281C186.506 70.2398 185.333 77.7482 190.26 82.4409C195.187 87.1336 196.126 88.0722 196.361 89.0107C196.595 89.9492 197.768 89.9492 197.768 89.9492L204.573 117.402C204.573 117.402 206.685 190.374 209.969 191.312C213.254 192.251 223.344 191.312 224.048 190.139C224.752 188.966 222.874 157.759 222.874 157.759C222.874 157.759 228.036 185.446 229.914 185.446C231.791 185.446 232.964 181.457 232.495 181.223C232.025 180.988 229.21 162.921 228.036 157.29C226.863 151.659 227.333 104.027 227.333 104.027C227.333 104.027 231.087 97.9269 218.182 85.9604C218.182 85.9604 209.969 62.0276 209.5 62.0276C209.031 62.0276 199.88 49.1226 199.88 49.1226C199.88 49.1226 194.718 49.1226 193.78 52.1728C192.841 55.2231 189.087 68.5973 189.087 68.5973Z" fill="#2F2E41"/>
<path d="M197.065 50.9996L199.88 49.1226C199.88 49.1226 211.612 56.1616 219.824 56.6309C228.037 57.1002 227.802 61.7929 224.517 65.0778C221.232 68.3627 208.327 79.6253 207.858 76.8096C207.389 73.994 197.065 50.9996 197.065 50.9996Z" fill="#2F2E41"/>
<path d="M186.623 39.3853C191.807 39.3853 196.009 36.8641 196.009 33.7541C196.009 30.644 191.807 28.1228 186.623 28.1228C181.44 28.1228 177.238 30.644 177.238 33.7541C177.238 36.8641 181.44 39.3853 186.623 39.3853Z" fill="#FF6584"/>
<path d="M187.562 29.5306C190.672 29.5306 193.193 27.0094 193.193 23.8993C193.193 20.7893 190.672 18.2681 187.562 18.2681C184.452 18.2681 181.93 20.7893 181.93 23.8993C181.93 27.0094 184.452 29.5306 187.562 29.5306Z" fill="#FF6584"/>
<path d="M180.053 20.849C180.053 19.4571 180.569 18.1145 181.501 17.0802C182.432 16.046 183.714 15.3933 185.098 15.2482C184.903 15.228 184.707 15.2178 184.511 15.2178C183.018 15.2178 181.586 15.8111 180.529 16.8671C179.473 17.9232 178.88 19.3555 178.88 20.849C178.88 22.3425 179.473 23.7749 180.529 24.8309C181.586 25.887 183.018 26.4803 184.511 26.4803C184.707 26.4803 184.903 26.4701 185.098 26.4499C183.714 26.3047 182.432 25.6521 181.501 24.6178C180.569 23.5836 180.053 22.241 180.053 20.849Z" fill="#FF6584"/>
<path d="M49.1682 70.2041C57.7153 70.2041 64.644 63.2753 64.644 54.7283C64.644 46.1812 57.7153 39.2524 49.1682 39.2524C40.6211 39.2524 33.6924 46.1812 33.6924 54.7283C33.6924 63.2753 40.6211 70.2041 49.1682 70.2041Z" fill="#6C63FF"/>
<path d="M141.181 205.397H252.872" stroke="#3F3D56" stroke-width="2" stroke-miterlimit="10"/>
<path d="M274.24 50.2777L260.712 63.8055L255.026 58.1197C254.846 57.9392 254.631 57.796 254.395 57.6984C254.16 57.6007 253.907 57.5504 253.652 57.5504C253.396 57.5504 253.144 57.6007 252.908 57.6984C252.672 57.796 252.458 57.9392 252.277 58.1197L252.073 57.8142C251.314 58.5732 251.518 60.1094 252.277 60.8684L259.655 68.2456C259.933 68.5237 260.31 68.6799 260.703 68.68C261.096 68.6801 261.473 68.5241 261.751 68.2462L276.987 53.0265C277.746 52.2677 278.022 50.8764 277.263 50.1173C276.504 49.3585 274.998 49.5189 274.24 50.2777Z" fill="#6C63FF"/>
<path opacity="0.1" d="M274.24 50.2777L260.712 63.8055L255.026 58.1197C254.846 57.9392 254.631 57.796 254.395 57.6984C254.16 57.6007 253.907 57.5504 253.652 57.5504C253.396 57.5504 253.144 57.6007 252.908 57.6984C252.672 57.796 252.458 57.9392 252.277 58.1197L252.073 57.8142C251.314 58.5732 251.518 60.1094 252.277 60.8684L259.655 68.2456C259.933 68.5237 260.31 68.6799 260.703 68.68C261.096 68.6801 261.473 68.5241 261.751 68.2462L276.987 53.0265C277.746 52.2677 278.022 50.8764 277.263 50.1173C276.504 49.3585 274.998 49.5189 274.24 50.2777Z" fill="black"/>
<path d="M274.24 49.678L260.712 63.2059L255.026 57.52C254.845 57.3395 254.631 57.1963 254.395 57.0987C254.16 57.001 253.907 56.9507 253.652 56.9507C253.396 56.9507 253.144 57.001 252.908 57.0987C252.672 57.1963 252.458 57.3395 252.277 57.52C252.097 57.7005 251.954 57.9147 251.856 58.1506C251.758 58.3864 251.708 58.6391 251.708 58.8943C251.708 59.1496 251.758 59.4023 251.856 59.6381C251.954 59.874 252.097 60.0882 252.277 60.2687L259.655 67.646C259.933 67.924 260.31 68.0802 260.703 68.0803C261.096 68.0804 261.473 67.9244 261.751 67.6465L276.987 52.4268C277.167 52.2464 277.311 52.0321 277.409 51.7964C277.506 51.5606 277.557 51.3078 277.557 51.0525C277.557 50.7973 277.507 50.5445 277.409 50.3087C277.311 50.0728 277.168 49.8585 276.988 49.678C276.623 49.3136 276.129 49.1089 275.614 49.1089C275.098 49.1089 274.604 49.3136 274.24 49.678Z" fill="#6C63FF"/>
</svg>
