<svg width="80" height="41" viewBox="0 0 80 41" fill="none" xmlns="http://www.w3.org/2000/svg">
<g clip-path="url(#clip0_2_551)">
<path d="M8 16.0605C5.87827 16.0605 3.84344 15.2144 2.34315 13.7085C0.842855 12.2025 0 10.16 0 8.03024L0 0H5.33333V8.03024C5.33333 8.74016 5.61428 9.421 6.11438 9.92299C6.61448 10.425 7.29276 10.707 8 10.707C8.70724 10.707 9.38552 10.425 9.88562 9.92299C10.3857 9.421 10.6667 8.74016 10.6667 8.03024V0H16V8.03024C16 10.16 15.1571 12.2025 13.6569 13.7085C12.1566 15.2144 10.1217 16.0605 8 16.0605Z" fill="#4DE897"/>
<path d="M21.3328 10.707H7.99951V16.0605H21.3328V10.707Z" fill="#016938"/>
<g opacity="0.5">
<path opacity="0.5" d="M8 16.0605C5.87827 16.0605 3.84344 15.2144 2.34315 13.7085C0.842855 12.2025 0 10.16 0 8.03024L0 0H5.33333V8.03024C5.33333 8.74016 5.61428 9.421 6.11438 9.92299C6.61448 10.425 7.29276 10.707 8 10.707C8.70724 10.707 9.38552 10.425 9.88562 9.92299C10.3857 9.421 10.6667 8.74016 10.6667 8.03024V0H16V8.03024C16 10.16 15.1571 12.2025 13.6569 13.7085C12.1566 15.2144 10.1217 16.0605 8 16.0605Z" fill="#4DE897"/>
</g>
<path d="M1.696 30.1403H0V27.1959H1.696V26.4357C1.65426 25.7595 1.75105 25.0819 1.98037 24.4447C2.2097 23.8076 2.5667 23.2244 3.02933 22.7311C3.5179 22.2798 4.09125 21.9309 4.71581 21.7047C5.34037 21.4786 6.0036 21.3798 6.66667 21.4141C9.13422 21.4141 10.6382 22.5134 11.1787 24.7119L8.53333 25.5256C8.43456 25.2166 8.24116 24.9467 7.98069 24.7545C7.72022 24.5623 7.40596 24.4574 7.08267 24.4549C6.25067 24.4549 5.83467 25.0117 5.83467 26.1252V27.1959H9.19467V30.1403H5.856V40.1513H1.696V30.1403Z" fill="black"/>
<path d="M19.4666 33.7911V27.1956H23.6799V40.151H19.4666V38.1381C19.1026 38.9039 18.5142 39.5398 17.7803 39.9607C17.0464 40.3817 16.2019 40.5676 15.3599 40.4936C14.7026 40.5544 14.0404 40.4569 13.4282 40.2093C12.816 39.9616 12.2715 39.5709 11.8399 39.0696C11.0838 37.9761 10.7088 36.6624 10.7732 35.3329V27.1956H14.9332V34.3157C14.9332 36.2215 15.6479 37.1745 17.0666 37.1745C17.4136 37.1907 17.7589 37.1153 18.0677 36.9555C18.3766 36.7958 18.6383 36.5575 18.8266 36.2644C19.2766 35.5206 19.4991 34.6606 19.4666 33.7911Z" fill="black"/>
<path d="M29.44 33.5557V40.1512H25.248V27.1957H29.44V29.2086C29.7964 28.477 30.3704 27.8747 31.0827 27.4848C31.8679 27.0461 32.7549 26.8244 33.6534 26.8424C34.3156 26.7833 34.9824 26.8837 35.5982 27.1351C36.2141 27.3865 36.7614 27.7816 37.1947 28.2878C37.9561 29.3829 38.3315 30.7017 38.2614 32.0353V40.1512H34.1334V33.0524C34.1334 31.1359 33.4187 30.1723 32 30.1723C31.6316 30.139 31.261 30.2024 30.9243 30.3563C30.5877 30.5102 30.2968 30.7494 30.08 31.0502C29.6146 31.7992 29.391 32.6743 29.44 33.5557Z" fill="black"/>
<path d="M49.5893 40.1515V37.8388C49.2822 38.6374 48.7243 39.314 48 39.766C47.1767 40.2725 46.2237 40.5256 45.2586 40.4941C44.4477 40.5397 43.6377 40.3906 42.8957 40.0591C42.1537 39.7277 41.501 39.2234 40.992 38.5882C39.9407 37.1723 39.4026 35.4385 39.4666 33.6737C39.3966 31.9165 39.9232 30.1876 40.96 28.7699C41.4657 28.1295 42.1171 27.6202 42.8595 27.2848C43.6019 26.9495 44.4137 26.7978 45.2266 26.8427C46.1927 26.8144 47.1459 27.0713 47.968 27.5815C48.6887 28.0471 49.2449 28.729 49.5573 29.5301V21.7676H53.824V40.1515H49.5893ZM49.5893 33.8129V33.5238C49.6334 32.6339 49.3528 31.7584 48.8 31.0612C48.5356 30.7574 48.2067 30.517 47.8375 30.3577C47.4683 30.1983 47.0682 30.1241 46.6666 30.1404C46.2514 30.1138 45.8359 30.1863 45.4539 30.352C45.072 30.5176 44.7346 30.7717 44.4693 31.0934C43.9418 31.8459 43.6825 32.755 43.7333 33.6737C43.681 34.6026 43.9402 35.5224 44.4693 36.2862C44.7357 36.606 45.0736 36.858 45.4554 37.0218C45.8373 37.1855 46.2523 37.2563 46.6666 37.2285C47.0692 37.2451 47.4703 37.1699 47.8398 37.0085C48.2093 36.8472 48.5376 36.6039 48.8 36.297C49.3534 35.5918 49.6338 34.7095 49.5893 33.8129Z" fill="black"/>
<path d="M67.4565 31.8854V36.6179C67.4565 37.2603 67.7232 37.5816 68.2672 37.5816C68.636 37.586 69.0009 37.5054 69.3338 37.346V39.6159C68.539 40.1874 67.5807 40.4842 66.6032 40.4617C65.9011 40.4835 65.2115 40.2728 64.6405 39.8621C64.1011 39.4433 63.7239 38.8489 63.5738 38.1811C62.8378 39.7015 61.3872 40.4617 59.2432 40.4617C58.1387 40.523 57.0478 40.1933 56.1605 39.5302C55.7841 39.2135 55.4854 38.8141 55.2875 38.363C55.0896 37.9118 54.9978 37.4209 55.0192 36.9284C54.9953 36.42 55.0921 35.9131 55.3016 35.4495C55.5112 34.986 55.8275 34.5791 56.2245 34.2624C57.2638 33.5104 58.4669 33.0185 59.7339 32.8276L63.3392 32.1852V31.9497C63.3833 31.6867 63.3653 31.4169 63.2865 31.1622C63.2078 30.9074 63.0705 30.6748 62.8857 30.4831C62.701 30.2914 62.4739 30.146 62.2229 30.0585C61.9719 29.971 61.7039 29.944 61.4405 29.9796C60.9267 29.9639 60.4263 30.1458 60.0417 30.4881C59.657 30.8304 59.4172 31.3073 59.3712 31.8212L55.4672 31.5428C55.6476 30.1939 56.3391 28.9668 57.3979 28.1166C58.6319 27.2121 60.1387 26.7621 61.6645 26.8424C63.1884 26.7506 64.6968 27.1935 65.9312 28.0952C66.4623 28.5637 66.8769 29.1506 67.1417 29.8087C67.4066 30.4668 67.5144 31.178 67.4565 31.8854ZM63.3285 34.6585V34.4016L61.1952 34.8406C60.6281 34.9288 60.0821 35.1212 59.5845 35.408C59.4107 35.5233 59.2713 35.6838 59.1811 35.8724C59.091 36.0609 59.0534 36.2705 59.0725 36.4787C59.065 36.6485 59.0978 36.8177 59.1683 36.9722C59.2388 37.1267 59.3449 37.2622 59.4778 37.3674C59.7839 37.5997 60.1613 37.7171 60.5445 37.6993C60.9138 37.71 61.2811 37.6409 61.6215 37.4969C61.962 37.3528 62.2676 37.137 62.5178 36.8642C62.793 36.5696 63.0066 36.2227 63.1458 35.8438C63.2851 35.465 63.3472 35.0619 63.3285 34.6585Z" fill="black"/>
<path d="M70.0586 21.7676H74.2399V40.1515H70.0586V21.7676Z" fill="black"/>
<path d="M75.8076 21.7676H79.9996V40.1515H75.8076V21.7676Z" fill="black"/>
</g>
<defs>
<clipPath id="clip0_2_551">
<rect width="80" height="40.4938" fill="white"/>
</clipPath>
</defs>
</svg>
