<svg width="276" height="280" viewBox="0 0 276 280" fill="none" xmlns="http://www.w3.org/2000/svg">
<path d="M243.077 106.29C227.646 45.6115 174.327 1.8103 111.742 0.0534692C78.6549 -0.875313 43.8383 10.0981 18.4893 48.4981C-26.8249 117.142 21.2739 164.578 54.8071 187.118C71.0077 198.029 85.6054 211.15 98.1773 226.099C120.828 252.977 164.402 286.378 216.298 234.044C253.912 196.113 253.355 146.708 243.077 106.29Z" fill="#F2F2F2"/>
<path d="M269.465 246.007C269.465 257.967 213.222 279.186 143.842 279.186C74.4621 279.186 24.8037 236.185 24.8037 224.226C24.8037 212.266 74.4621 235.876 143.842 235.876C213.222 235.876 269.465 234.048 269.465 246.007Z" fill="#3F3D56"/>
<path opacity="0.1" d="M269.465 246.007C269.465 257.967 213.222 279.186 143.842 279.186C74.4621 279.186 24.8037 236.185 24.8037 224.226C24.8037 212.266 74.4621 235.876 143.842 235.876C213.222 235.876 269.465 234.048 269.465 246.007Z" fill="black"/>
<path d="M269.465 245.88C269.465 257.84 213.222 267.535 143.842 267.535C74.4621 267.535 24.8037 236.185 24.8037 224.226C24.8037 212.266 74.4621 224.226 143.842 224.226C213.222 224.226 269.465 233.921 269.465 245.88Z" fill="#3F3D56"/>
<g opacity="0.7">
<path opacity="0.7" d="M265.307 65.1808C260.75 74.0251 246.308 84.4468 237.464 79.8901C228.62 75.3335 228.722 57.5241 233.279 48.6798C235.468 44.4335 239.253 41.2304 243.803 39.7751C248.354 38.3197 253.295 38.7312 257.542 40.9191C261.789 43.1071 264.993 46.8922 266.449 51.442C267.905 55.9919 267.494 60.9338 265.307 65.1808Z" fill="#6C63FF"/>
<path opacity="0.7" d="M238.212 82.2293C237.927 81.6752 237.477 81.224 236.923 80.9388C236.37 80.6535 235.741 80.5487 235.125 80.6388L236.715 77.5518L239.802 79.1422L238.212 82.2293Z" fill="#6C63FF"/>
<path opacity="0.7" d="M235.962 79.0339C236.316 79.5239 236.782 79.9227 237.321 80.1975C237.86 80.4723 238.456 80.6152 239.061 80.6146" stroke="#2F2E41" stroke-width="2" stroke-miterlimit="10"/>
<path opacity="0.4" d="M262.805 55.3468C263.958 53.1091 263.381 50.5163 261.516 49.5555C259.651 48.5948 257.205 49.63 256.052 51.8677C254.899 54.1054 255.476 56.6983 257.341 57.659C259.206 58.6197 261.652 57.5845 262.805 55.3468Z" fill="white"/>
<path opacity="0.7" d="M237.381 80.001L223.941 113.821" stroke="#2F2E41" stroke-width="2" stroke-miterlimit="10"/>
</g>
<path d="M268.143 119.434C258.167 129.498 234.086 137.474 224.022 127.498C213.958 117.522 221.721 93.3714 231.697 83.307C236.488 78.4767 243.002 75.747 249.805 75.7182C256.609 75.6895 263.145 78.3639 267.977 83.1536C272.809 87.9432 275.541 94.4558 275.572 101.259C275.603 108.063 272.931 114.6 268.143 119.434Z" fill="#FF6584"/>
<path d="M224.038 130.995C223.889 130.121 223.47 129.315 222.84 128.691C222.21 128.066 221.401 127.654 220.525 127.513L224.007 124L227.52 127.482L224.038 130.995Z" fill="#FF6584"/>
<path d="M222.349 125.691C222.621 126.509 223.083 127.25 223.697 127.854C224.311 128.458 225.06 128.907 225.882 129.165" stroke="#2F2E41" stroke-width="2" stroke-miterlimit="10"/>
<path d="M223.352 128.346L190.272 161.718" stroke="#2F2E41" stroke-width="2" stroke-miterlimit="10"/>
<path opacity="0.4" d="M268.954 105.002C271.479 102.456 271.804 98.6867 269.682 96.5833C267.56 94.4799 263.794 94.839 261.27 97.3854C258.746 99.9318 258.42 103.701 260.542 105.805C262.664 107.908 266.43 107.549 268.954 105.002Z" fill="white"/>
<path d="M236.963 86.829C233.675 100.613 217.254 119.948 203.47 116.661C189.686 113.374 183.758 88.7089 187.045 74.9246C188.627 68.309 192.772 62.5925 198.568 59.0316C204.363 55.4706 211.336 54.3567 217.952 55.9346C224.569 57.5126 230.288 61.6532 233.853 67.4464C237.418 73.2397 238.536 80.2113 236.963 86.829Z" fill="#6C63FF"/>
<path d="M205.302 119.64C204.72 118.971 203.943 118.501 203.08 118.295C202.218 118.089 201.312 118.158 200.491 118.493L201.638 113.682L206.449 114.829L205.302 119.64Z" fill="#6C63FF"/>
<path d="M201.102 115.988C201.759 116.545 202.539 116.938 203.378 117.134C204.217 117.331 205.09 117.325 205.926 117.118" stroke="#2F2E41" stroke-width="2" stroke-miterlimit="10"/>
<path opacity="0.4" d="M230.15 74.0806C230.982 70.593 229.3 67.2038 226.394 66.5107C223.488 65.8176 220.457 68.083 219.626 71.5706C218.794 75.0582 220.476 78.4474 223.382 79.1405C226.288 79.8336 229.319 77.5682 230.15 74.0806Z" fill="white"/>
<path d="M203.393 117.729L192.493 163.436" stroke="#2F2E41" stroke-width="2" stroke-miterlimit="10"/>
<g opacity="0.8">
<path opacity="0.8" d="M84.1724 207.695C77.0067 214.667 59.9176 219.987 52.9448 212.822C45.9719 205.656 51.7557 188.718 58.9214 181.745C60.6253 180.087 62.639 178.781 64.8476 177.901C67.0563 177.022 69.4166 176.585 71.7938 176.618C74.171 176.65 76.5185 177.151 78.7023 178.09C80.8861 179.03 82.8635 180.391 84.5215 182.094C86.1795 183.798 87.4857 185.812 88.3654 188.021C89.2452 190.229 89.6813 192.59 89.6489 194.967C89.6165 197.344 89.1161 199.691 88.1765 201.875C87.2368 204.059 85.8762 206.036 84.1724 207.695Z" fill="#6C63FF"/>
<path opacity="0.8" d="M52.9109 215.289C52.8169 214.67 52.5317 214.096 52.0952 213.648C51.6588 213.199 51.093 212.899 50.4771 212.788L52.9782 210.354L55.412 212.855L52.9109 215.289Z" fill="#6C63FF"/>
<path opacity="0.8" d="M51.7871 211.526C51.9685 212.106 52.2851 212.635 52.7107 213.069C53.1364 213.502 53.659 213.829 54.2355 214.021" stroke="#2F2E41" stroke-width="2" stroke-miterlimit="10"/>
<path opacity="0.4" d="M84.9285 197.525C86.7415 195.76 87.0194 193.105 85.5492 191.595C84.0791 190.084 81.4175 190.289 79.6045 192.053C77.7915 193.818 77.5136 196.473 78.9838 197.983C80.454 199.494 83.1155 199.289 84.9285 197.525Z" fill="white"/>
</g>
<path d="M161.943 60.7522H166.978C170.28 60.7522 173.448 62.0642 175.783 64.3995C178.118 66.7348 179.43 69.9022 179.43 73.2048V90.6916H149.491V73.2048C149.491 71.5695 149.813 69.9502 150.439 68.4394C151.064 66.9286 151.982 65.5558 153.138 64.3995C154.294 63.2432 155.667 62.3259 157.178 61.7001C158.689 61.0743 160.308 60.7522 161.943 60.7522Z" fill="#2F2E41"/>
<path d="M147.654 138.709L143.876 146.653C143.876 146.653 140.796 157.325 144.285 158.466C147.775 159.606 148.456 147.514 148.456 147.514L151.346 139.507L147.654 138.709Z" fill="#FFB9B9"/>
<path opacity="0.1" d="M147.654 138.709L143.876 146.653C143.876 146.653 140.796 157.325 144.285 158.466C147.775 159.606 148.456 147.514 148.456 147.514L151.346 139.507L147.654 138.709Z" fill="black"/>
<path d="M148.369 126.276L143.591 143.001L151.157 146.983V127.073L148.369 126.276Z" fill="#575A89"/>
<path d="M161.311 81.8754C161.311 81.8754 160.913 88.2468 160.117 88.2468C159.32 88.2468 157.728 95.8128 157.728 95.8128L164.497 100.193L172.86 92.6271L170.47 86.6539C170.47 86.6539 169.276 84.2646 169.674 81.8754C170.072 79.4861 161.311 81.8754 161.311 81.8754Z" fill="#FFB9B9"/>
<path opacity="0.1" d="M161.311 81.8754C161.311 81.8754 160.913 88.2468 160.117 88.2468C159.32 88.2468 157.728 95.8128 157.728 95.8128L164.497 100.193L172.86 92.6271L170.47 86.6539C170.47 86.6539 169.276 84.2646 169.674 81.8754C170.072 79.4861 161.311 81.8754 161.311 81.8754Z" fill="black"/>
<path d="M186.398 145.191L187.195 153.952C187.195 153.952 189.982 164.703 193.566 163.907C197.15 163.111 191.575 152.359 191.575 152.359L189.982 143.996L186.398 145.191Z" fill="#FFB9B9"/>
<path d="M169.275 231.603C169.275 231.603 171.665 246.337 170.072 249.124C168.479 251.912 171.665 252.31 171.665 252.31L181.222 249.921V245.541C181.222 245.541 178.036 231.205 178.036 230.409C178.036 229.612 169.275 231.603 169.275 231.603Z" fill="#FFB9B9"/>
<path d="M149.763 165.5C149.763 165.5 152.551 194.171 156.931 203.33C161.311 212.489 165.293 237.576 167.285 237.974C169.276 238.373 184.408 235.585 186.399 233.992C188.39 232.399 172.859 193.773 172.859 193.375C172.859 192.976 169.276 157.536 169.276 157.536L164.497 149.571L149.763 165.5Z" fill="#2F2E41"/>
<path opacity="0.1" d="M149.763 165.5C149.763 165.5 152.551 194.171 156.931 203.33C161.311 212.489 165.293 237.576 167.285 237.974C169.276 238.373 184.408 235.585 186.399 233.992C188.39 232.399 172.859 193.773 172.859 193.375C172.859 192.976 169.276 157.536 169.276 157.536L164.497 149.571L149.763 165.5Z" fill="black"/>
<path d="M172.86 248.328C172.86 248.328 168.877 246.337 168.081 247.531L164.895 252.31C164.895 252.31 151.356 258.681 156.135 259.478C160.913 260.274 170.072 260.274 171.267 259.478C172.461 258.681 185.602 251.514 185.204 251.115C184.806 250.717 181.62 242.355 181.222 243.151C180.824 243.948 175.249 249.921 172.86 248.328Z" fill="#2F2E41"/>
<path d="M105.959 214.48C105.959 214.48 96.8003 220.851 92.42 219.657C88.0396 218.462 92.42 228.417 92.42 228.417L100.384 232.798L102.773 230.806C102.773 230.806 111.136 219.657 114.72 219.258C118.304 218.86 105.959 214.48 105.959 214.48Z" fill="#FFB9B9"/>
<path d="M147.374 141.607L148.967 149.97L119.101 195.366C119.101 195.366 101.181 213.285 102.774 215.276C104.367 217.268 114.322 228.816 116.711 227.223C119.101 225.63 174.452 165.898 174.054 157.934C173.656 149.97 160.515 134.838 160.515 134.838L147.374 140.811V141.607Z" fill="#2F2E41"/>
<path d="M94.4118 222.444C94.4118 222.444 97.9957 218.462 96.0046 218.064C93.7651 217.669 91.5049 217.403 89.235 217.267C88.4386 217.267 77.6869 211.692 76.8904 213.683C76.094 215.674 81.669 226.028 84.8547 227.223C88.0404 228.417 99.5885 236.78 99.5885 236.78C99.5885 236.78 105.562 231.603 104.765 230.408C103.969 229.214 92.8189 226.824 94.4118 222.444Z" fill="#2F2E41"/>
<path d="M164.497 85.8573C169.775 85.8573 174.054 81.5785 174.054 76.3003C174.054 71.022 169.775 66.7432 164.497 66.7432C159.219 66.7432 154.94 71.022 154.94 76.3003C154.94 81.5785 159.219 85.8573 164.497 85.8573Z" fill="#FFB9B9"/>
<path d="M166.488 90.6358C166.488 90.6358 159.719 91.034 157.727 89.8394C155.736 88.6448 151.356 106.166 151.356 106.166L148.569 129.262C148.569 129.262 148.17 132.05 148.569 133.643C148.967 135.236 144.586 132.846 146.179 137.227C147.772 141.607 144.985 143.598 147.772 143.996C150.56 144.394 165.293 138.421 165.293 138.421L172.063 102.98L174.054 88.6448L166.488 90.6358Z" fill="#D0CDE1"/>
<path d="M160.599 87.4009C160.599 87.4009 156.931 86.6538 155.736 87.4502C154.542 88.2466 150.162 94.2198 150.162 95.8127C150.162 97.4055 148.569 114.927 148.569 116.52C148.569 118.113 147.374 126.475 147.374 127.271C147.374 128.068 148.395 131.491 148.395 131.491L150.958 126.873C150.958 126.873 150.162 120.9 152.949 111.343C155.736 101.786 160.599 87.4009 160.599 87.4009Z" fill="#575A89"/>
<path d="M164.497 93.4232C164.497 93.4232 169.817 85.0608 170.144 85.8572C170.471 86.6536 176.444 87.8482 176.444 87.8482C176.444 87.8482 187.195 95.4143 186.399 98.6C185.603 101.786 180.028 125.678 180.028 125.678C180.028 125.678 174.851 138.023 178.833 146.784C182.815 155.544 178.037 158.73 178.037 158.73C178.037 158.73 174.851 160.323 175.647 161.916C176.444 163.509 166.488 169.482 165.294 165.101C164.099 160.721 149.365 134.439 152.551 124.882C155.737 115.325 164.497 93.4232 164.497 93.4232Z" fill="#575A89"/>
<path d="M184.408 97.4058C184.408 97.4058 188.788 105.768 187.991 106.963C187.195 108.157 190.779 115.325 190.779 115.325C190.531 115.966 190.531 116.676 190.779 117.316C191.177 118.511 193.566 123.688 193.566 125.679C193.566 127.67 193.168 134.041 193.566 136.829C193.965 139.616 199.141 146.386 194.761 146.784C190.381 147.182 183.213 150.766 183.611 146.784C184.009 142.802 185.204 133.245 183.611 131.652C182.018 130.059 180.824 130.059 181.62 128.068C182.416 126.077 178.036 120.9 178.036 120.9L184.408 97.4058Z" fill="#575A89"/>
<path d="M172.483 73.9463H157.367L153.944 66.0808H175.05L172.483 73.9463Z" fill="#2F2E41"/>
<path d="M155.383 79.7015C155.787 79.5845 155.862 78.6168 155.55 77.54C155.238 76.4633 154.657 75.6853 154.254 75.8023C153.85 75.9193 153.775 76.887 154.087 77.9638C154.399 79.0405 154.98 79.8185 155.383 79.7015Z" fill="#FFB9B9"/>
<path d="M174.579 77.9636C174.891 76.8869 174.817 75.9192 174.413 75.8022C174.009 75.6852 173.429 76.4632 173.117 77.5399C172.805 78.6166 172.88 79.5844 173.283 79.7014C173.687 79.8184 174.267 79.0403 174.579 77.9636Z" fill="#FFB9B9"/>
<path d="M263.905 229.455C263.905 238.705 258.406 241.934 251.624 241.934C251.466 241.934 251.308 241.932 251.153 241.93C250.837 241.922 250.526 241.907 250.22 241.885C244.097 241.453 239.342 238.057 239.342 229.455C239.342 220.555 250.714 209.324 251.572 208.488C251.573 208.488 251.573 208.488 251.573 208.488C251.574 208.488 251.574 208.488 251.574 208.488C251.574 208.488 251.574 208.487 251.574 208.487C251.575 208.487 251.575 208.487 251.575 208.486C251.607 208.456 251.624 208.439 251.624 208.439C251.624 208.439 263.905 220.205 263.905 229.455Z" fill="#F2F2F2"/>
<path d="M251.176 240.52L255.667 234.244L251.166 241.208L251.153 241.93C250.837 241.922 250.526 241.907 250.22 241.885L250.703 232.633L250.699 232.561L250.708 232.548L250.754 231.673L246.24 224.692L250.767 231.016L250.778 231.204L251.144 224.212L247.28 216.997L251.191 222.983L251.572 208.488L251.575 208.439V208.486L251.511 219.918L255.358 215.386L251.494 220.902L251.393 227.163L254.985 221.155L251.379 228.083L251.321 231.564L256.536 223.202L251.302 232.778L251.176 240.52Z" fill="#3F3D56"/>
</svg>
